<svg width="33" height="38" viewBox="0 0 33 38" fill="none" xmlns="http://www.w3.org/2000/svg">
<path d="M0.182 38V0.463997H8.546V38H0.182ZM22.775 38L11.861 21.986H21.041L32.465 38H22.775ZM6.302 26.066V19.487H15.482C16.706 19.487 17.76 19.249 18.644 18.773C19.562 18.263 20.259 17.566 20.735 16.682C21.245 15.764 21.5 14.71 21.5 13.52C21.5 12.33 21.245 11.293 20.735 10.409C20.259 9.491 19.562 8.794 18.644 8.318C17.76 7.808 16.706 7.553 15.482 7.553H6.302V0.463997H14.819C17.913 0.463997 20.599 0.939998 22.877 1.892C25.155 2.81 26.906 4.187 28.13 6.023C29.354 7.859 29.966 10.171 29.966 12.959V13.775C29.966 16.529 29.337 18.824 28.079 20.66C26.855 22.462 25.104 23.822 22.826 24.74C20.582 25.624 17.913 26.066 14.819 26.066H6.302Z" fill="black"/>
</svg>
